<?xml version="1.0" encoding="UTF-8" standalone="no"?>
<svg
   xmlns:dc="http://purl.org/dc/elements/1.1/"
   xmlns:cc="http://creativecommons.org/ns#"
   xmlns:rdf="http://www.w3.org/1999/02/22-rdf-syntax-ns#"
   xmlns:svg="http://www.w3.org/2000/svg"
   xmlns="http://www.w3.org/2000/svg"
   height="665"
   width="1185"
   id="svg4"
   version="1.1"
   viewBox="0 0 1185 665"
   role="img"
   class="svg-inline--fa fa-user-secret fa-w-14"
   data-icon="user-secret"
   data-prefix="fas"
   focusable="false"
   aria-hidden="true">
  <metadata
     id="metadata10">
    <rdf:RDF>
      <cc:Work
         rdf:about="">
        <dc:format>image/svg+xml</dc:format>
        <dc:type
           rdf:resource="http://purl.org/dc/dcmitype/StillImage" />
        <dc:title></dc:title>
      </cc:Work>
    </rdf:RDF>
  </metadata>
  <defs
     id="defs8" />
  <path
     style="fill:currentColor"
     id="path2"
     d="m 752.4,384.79271 23.9,-62.6 c 4,-10.5 -3.7,-21.7 -15,-21.7 h -58.5 c 11,-18.9 17.8,-40.6 17.8,-64 v -0.3 c 39.2,-7.8 64,-19.1 64,-31.7 0,-13.3 -27.3,-25.1 -70.1,-33 -9.2,-32.8 -27,-65.8 -40.6,-82.799998 -9.5,-11.9 -25.9,-15.6 -39.5,-8.8 l -27.6,13.8 c -9,4.5 -19.6,4.5 -28.6,0 l -27.6,-13.8 c -13.6,-6.8 -30,-3.1 -39.5,8.8 -13.5,16.999998 -31.4,49.999998 -40.6,82.799998 -42.7,7.9 -70,19.7 -70,33 0,12.6 24.8,23.9 64,31.7 v 0.3 c 0,23.4 6.8,45.1 17.8,64 h -57.5 c -11.5,0 -19.2,11.7 -14.7,22.3 l 25.8,60.2 c -40.1,23.3 -67.4,66.2 -67.4,115.9 v 44.8 c 0,24.7 20.1,44.8 44.8,44.8 h 358.4 c 24.7,0 44.8,-20.1 44.8,-44.8 v -44.8 c 0,-48.4 -25.8,-90.4 -64.1,-114.1 z m -207.9,171.7 -41.6,-192 49.6,32 24,40 z m 96,0 -32,-120 24,-40 49.6,-32 z m 41.7,-298.5 c -3.9,11.9 -7,24.6 -16.5,33.4 -10.1,9.3 -48,22.4 -64,-25 -2.8,-8.4 -15.4,-8.4 -18.3,0 -17,50.2 -56,32.4 -64,25 -9.5,-8.8 -12.7,-21.5 -16.5,-33.4 -0.8,-2.5 -6.3,-5.7 -6.3,-5.8 v -10.8 c 28.3,3.6 61,5.8 96,5.8 35,0 67.7,-2.1 96,-5.8 v 10.8 c -0.1,0.1 -5.6,3.2 -6.4,5.8 z" />
</svg>
